<svg xmlns="http://www.w3.org/2000/svg" version="1.1" xmlns:xlink="http://www.w3.org/1999/xlink" viewBox="0 0 200 200" width="200" height="200"><metadata><rdf:RDF xmlns:rdf="http://www.w3.org/1999/02/22-rdf-syntax-ns#" xmlns:dc="http://purl.org/dc/elements/1.1/"><rdf:Description><dc:creator>RealFaviconGenerator</dc:creator><dc:source>https://realfavicongenerator.net</dc:source></rdf:Description></rdf:RDF></metadata><rect width="200" height="200" fill="url('#gradient')"></rect><defs><linearGradient id="gradient" gradientTransform="rotate(45 0.5 0.5)"><stop offset="0%" stop-color="#5f645b"></stop><stop offset="100%" stop-color="#4e3721"></stop></linearGradient></defs><g><g fill="#d2f0f3" transform="matrix(2.1457508731082653,0,0,2.1457508731082653,7.697948357806361,115.88089977393189)" stroke="#a7b7b5" stroke-width="0.2"><path d="M12.95-14.22L12.95 0L9.54 0L4.50-8.85L4.50 0L1.07 0L1.07-14.22L4.50-14.22L9.53-5.37L9.53-14.22L12.95-14.22ZM14.56-4.82L14.55-5.38Q14.55-6.96 15.17-8.20Q15.78-9.43 16.93-10.10Q18.09-10.76 19.64-10.76L19.64-10.76Q22.01-10.76 23.38-9.29Q24.75-7.82 24.75-5.29L24.75-5.29L24.75-5.18Q24.75-2.71 23.37-1.25Q22.00 0.20 19.66 0.20L19.66 0.20Q17.40 0.20 16.04-1.16Q14.67-2.51 14.56-4.82L14.56-4.82ZM17.85-5.77L17.84-5.18Q17.84-3.71 18.30-3.03Q18.76-2.34 19.66-2.34L19.66-2.34Q21.42-2.34 21.46-5.05L21.46-5.05L21.46-5.38Q21.46-8.22 19.64-8.22L19.64-8.22Q17.99-8.22 17.85-5.77L17.85-5.77ZM26.74-13.19L30.03-13.19L30.03-10.57L31.77-10.57L31.77-8.28L30.03-8.28L30.03-3.45Q30.03-2.85 30.24-2.62Q30.46-2.38 31.09-2.38L31.09-2.38Q31.58-2.38 31.91-2.44L31.91-2.44L31.91-0.09Q31.03 0.20 30.06 0.20L30.06 0.20Q28.36 0.20 27.55-0.61Q26.74-1.41 26.74-3.04L26.74-3.04L26.74-8.28L25.39-8.28L25.39-10.57L26.74-10.57L26.74-13.19ZM38.17 0.20L38.17 0.20Q35.74 0.20 34.24-1.25Q32.73-2.71 32.73-5.03L32.73-5.03L32.73-5.30Q32.73-6.92 33.33-8.16Q33.94-9.40 35.09-10.08Q36.24-10.76 37.82-10.76L37.82-10.76Q40.05-10.76 41.34-9.38Q42.63-8.00 42.63-5.53L42.63-5.53L42.63-4.25L36.08-4.25Q36.26-3.36 36.86-2.85Q37.45-2.34 38.40-2.34L38.40-2.34Q39.96-2.34 40.84-3.44L40.84-3.44L42.34-1.66Q41.73-0.81 40.60-0.31Q39.47 0.20 38.17 0.20ZM37.80-8.22L37.80-8.22Q36.36-8.22 36.08-6.31L36.08-6.31L39.40-6.31L39.40-6.56Q39.42-7.35 39.00-7.79Q38.58-8.22 37.80-8.22ZM53.06-8.30L53.06-5.66L47.53-5.66L47.53 0L44.10 0L44.10-14.22L53.61-14.22L53.61-11.57L47.53-11.57L47.53-8.30L53.06-8.30ZM58.36-15L58.36 0L55.06 0L55.06-15L58.36-15ZM59.98-4.82L59.97-5.38Q59.97-6.96 60.59-8.20Q61.20-9.43 62.35-10.10Q63.51-10.76 65.06-10.76L65.06-10.76Q67.43-10.76 68.80-9.29Q70.17-7.82 70.17-5.29L70.17-5.29L70.17-5.18Q70.17-2.71 68.79-1.25Q67.42 0.20 65.08 0.20L65.08 0.20Q62.82 0.20 61.46-1.16Q60.09-2.51 59.98-4.82L59.98-4.82ZM63.27-5.77L63.26-5.18Q63.26-3.71 63.72-3.03Q64.18-2.34 65.08-2.34L65.08-2.34Q66.84-2.34 66.88-5.05L66.88-5.05L66.88-5.38Q66.88-8.22 65.06-8.22L65.06-8.22Q63.41-8.22 63.27-5.77L63.27-5.77ZM79.08-10.57L80.74-4.34L81.81-10.57L84.96-10.57L82.47 0L79.69 0L77.94-6.27L76.18 0L73.40 0L70.91-10.57L74.06-10.57L75.11-4.19L76.79-10.57L79.08-10.57Z"></path></g></g></svg>